#N canvas 189 130 978 448 10;
#X obj 602 149 metro 125;
#X obj 602 172 counter;
#X floatatom 602 267 5 0 0 0 - - -;
#X obj 602 289 makenote 64 125;
#X obj 602 313 noteout 1;
#N canvas 753 54 500 451 bpm 0;
#X obj 10 11 inlet;
#X obj 110 11 inlet;
#X text 47 9 BPM;
#X text 148 9 Note value;
#X msg 25 138 60000;
#X obj 25 162 /;
#X obj 25 186 int;
#X floatatom 25 210 5 0 0 0 - - -;
#X obj 45 250 *;
#X obj 82 71 t b f;
#X obj 85 108 sel 0 1 2 3;
#X msg 85 142 0.25;
#X msg 91 162 0.5;
#X msg 96 185 1;
#X msg 102 207 1.5;
#X obj 25 94 int;
#X floatatom 45 278 5 0 0 0 - - -;
#X obj 25 116 t b f;
#X obj 10 72 bng 15 250 50 0 empty empty empty 17 7 0 10 -262144 -1
-1;
#X text 123 143 16th;
#X text 128 163 8th;
#X text 130 184 Quarter;
#X text 134 207 Dotted Quarter;
#X text 85 279 Result in msec.;
#X obj 45 306 outlet;
#X connect 0 0 15 1;
#X connect 0 0 18 0;
#X connect 1 0 9 0;
#X connect 4 0 5 0;
#X connect 5 0 6 0;
#X connect 6 0 7 0;
#X connect 7 0 8 0;
#X connect 8 0 16 0;
#X connect 9 0 15 0;
#X connect 9 1 10 0;
#X connect 10 0 11 0;
#X connect 10 1 12 0;
#X connect 10 2 13 0;
#X connect 10 3 14 0;
#X connect 11 0 8 1;
#X connect 12 0 8 1;
#X connect 13 0 8 1;
#X connect 14 0 8 1;
#X connect 15 0 17 0;
#X connect 16 0 24 0;
#X connect 17 0 4 0;
#X connect 17 1 5 1;
#X connect 18 0 15 0;
#X restore 653 122 pd bpm;
#X floatatom 671 153 5 0 0 0 - - -;
#X obj 634 80 nbx 3 24 -1e+37 1e+37 0 0 empty empty empty 0 -8 0 12
-117248 -1 -1 96 256;
#X obj 686 50 vradio 15 1 0 4 empty empty empty 0 -8 0 10 -179008 -1
-1 3;
#X text 708 49 16th;
#X text 709 64 8th;
#X text 709 79 Quarter;
#X text 709 96 DottedQ;
#X text 552 85 BPM (Quarter);
#X text 707 154 msec.;
#X obj 13 92 tgl 30 0 startstop empty empty 17 7 0 10 -262144 -1 -1
0 1;
#X obj 573 126 r startstop;
#X obj 670 178 r cyclenotes;
#X floatatom 670 203 5 0 0 0 - - -;
#X obj 13 218 s cyclenotes;
#X obj 13 155 hradio 30 1 0 19 empty empty empty 0 -8 0 10 -262144
-1 -1 12;
#X text 10 133 Cycle length;
#X obj 242 215 hsl 60 24 36 46 0 0 empty empty empty -2 -8 0 24 -262144
-1 -1 3200 0;
#X obj 239 245 int;
#X floatatom 239 268 5 0 0 0 - - -;
#X obj 239 291 s offset;
#X obj 670 228 r offset;
#X text 237 195 Offset;
#X text 46 99 Start / Stop;
#X obj 873 299 ctlout 71 1;
#X obj 873 207 vsl 20 68 0 127 0 0 empty empty empty 0 -9 0 10 -262144
-1 -1 0 1;
#X obj 793 300 ctlout 74 1;
#X obj 793 205 vsl 20 68 0 127 0 0 empty empty empty 0 -9 0 10 -262144
-1 -1 0 1;
#X text 750 178 Frequency Cutoff;
#X text 869 178 Q;
#X obj 602 245 + 36;
#X obj 13 193 + 1;
#X obj 602 195 % 8;
#X connect 0 0 1 0;
#X connect 1 0 37 0;
#X connect 2 0 3 0;
#X connect 3 0 4 0;
#X connect 3 1 4 1;
#X connect 5 0 0 1;
#X connect 5 0 6 0;
#X connect 7 0 5 0;
#X connect 8 0 5 1;
#X connect 16 0 0 0;
#X connect 17 0 18 0;
#X connect 17 0 37 1;
#X connect 20 0 36 0;
#X connect 22 0 23 0;
#X connect 23 0 24 0;
#X connect 24 0 25 0;
#X connect 26 0 35 1;
#X connect 30 0 29 0;
#X connect 32 0 31 0;
#X connect 35 0 2 0;
#X connect 36 0 19 0;
#X connect 37 0 35 0;
#X coords 0 0 4 1 0 0 0;
