#N canvas 34 22 1231 749 10;
#X msg -42 63 \; pd dsp \$1;
#X floatatom 92 147 5 0 0 0 - - -;
#X obj 92 181 +~;
#X obj 92 515 *~;
#X obj 51 515 s~ VU;
#X obj 377 606 dac~ 1 2;
#X obj -42 32 tgl 15 0 empty empty empty 17 7 0 10 -262144 -1 -1 0
1;
#X obj 46 193 vu 15 120 empty empty -1 -8 0 10 -66577 -1 1 0;
#X floatatom 136 110 5 0 0 0 - - -;
#X obj 136 164 *~;
#X floatatom 170 148 5 0 0 0 - - -;
#X obj 45 108 r~ VU;
#X obj 45 135 env~;
#X obj 45 162 - 100;
#X obj 144 483 vsl 15 50 0 0.5 0 0 empty empty empty 0 -9 0 10 -262144
-1 -1 2800 1;
#X obj 92 437 phasor~;
#X obj 92 111 mtof;
#X obj 124 370 phasor~;
#X obj 136 130 square~;
#X obj 127 214 square~;
#X floatatom 127 187 5 0 0 0 - - -;
#X floatatom 164 230 5 0 0 0 - - -;
#X obj 127 246 *~;
#X obj 92 263 +~;
#X obj 125 296 phasor~;
#X floatatom 125 274 5 0 0 0 - - -;
#X floatatom 180 297 5 0 0 0 - - -;
#X floatatom 124 350 5 0 0 0 - - -;
#X floatatom 174 370 5 0 0 0 - - -;
#X obj 125 319 *~;
#X obj 124 396 *~;
#X obj 92 336 +~;
#X obj 92 413 +~;
#X floatatom 291 147 5 0 0 0 - - -;
#X obj 291 181 +~;
#X obj 291 515 *~;
#X floatatom 335 110 5 0 0 0 - - -;
#X obj 335 164 *~;
#X floatatom 369 148 5 0 0 0 - - -;
#X obj 343 487 vsl 15 50 0 0.5 0 0 empty empty empty 0 -9 0 10 -262144
-1 -1 2900 1;
#X obj 291 437 phasor~;
#X obj 294 89 hsl 128 15 0 127 0 0 empty empty empty -2 -8 0 10 -262144
-1 -1 1100 1;
#X obj 291 111 mtof;
#X obj 323 370 phasor~;
#X obj 335 130 square~;
#X obj 326 214 square~;
#X floatatom 326 187 5 0 0 0 - - -;
#X floatatom 363 230 5 0 0 0 - - -;
#X obj 326 246 *~;
#X obj 291 263 +~;
#X obj 324 296 phasor~;
#X floatatom 324 274 5 0 0 0 - - -;
#X floatatom 379 297 5 0 0 0 - - -;
#X floatatom 323 350 5 0 0 0 - - -;
#X floatatom 373 370 5 0 0 0 - - -;
#X obj 324 319 *~;
#X obj 323 396 *~;
#X obj 291 336 +~;
#X obj 291 413 +~;
#X obj 244 194 vu 15 120 empty empty -1 -8 0 10 -66577 -1 1 0;
#X obj 243 136 env~;
#X obj 243 163 - 100;
#X obj 243 109 r~ VU2;
#X obj 243 516 s~ VU2;
#X floatatom 481 148 5 0 0 0 - - -;
#X obj 481 182 +~;
#X obj 481 516 *~;
#X obj 435 195 vu 15 120 empty empty -1 -8 0 10 -66577 -1 1 0;
#X floatatom 525 111 5 0 0 0 - - -;
#X obj 525 165 *~;
#X floatatom 559 149 5 0 0 0 - - -;
#X obj 434 137 env~;
#X obj 434 164 - 100;
#X obj 533 488 vsl 15 50 0 0.5 0 0 empty empty empty 0 -9 0 10 -262144
-1 -1 3600 1;
#X obj 481 438 phasor~;
#X obj 484 90 hsl 128 15 0 127 0 0 empty empty empty -2 -8 0 10 -262144
-1 -1 500 1;
#X obj 481 112 mtof;
#X obj 513 371 phasor~;
#X obj 525 131 square~;
#X obj 516 215 square~;
#X floatatom 516 188 5 0 0 0 - - -;
#X floatatom 553 231 5 0 0 0 - - -;
#X obj 516 247 *~;
#X obj 481 264 +~;
#X obj 514 297 phasor~;
#X floatatom 514 275 5 0 0 0 - - -;
#X floatatom 569 298 5 0 0 0 - - -;
#X floatatom 513 351 5 0 0 0 - - -;
#X floatatom 563 371 5 0 0 0 - - -;
#X obj 514 320 *~;
#X obj 513 397 *~;
#X obj 481 337 +~;
#X obj 481 414 +~;
#X floatatom 672 148 5 0 0 0 - - -;
#X obj 672 182 +~;
#X obj 672 466 *~;
#X floatatom 716 111 5 0 0 0 - - -;
#X obj 716 165 *~;
#X floatatom 750 149 5 0 0 0 - - -;
#X obj 754 438 vsl 15 50 0 0.5 0 0 empty empty empty 0 -9 0 10 -262144
-1 -1 0 1;
#X obj 672 438 phasor~;
#X obj 627 90 hsl 128 15 0 127 0 0 empty empty empty -2 -8 0 10 -262144
-1 -1 6300 1;
#X obj 672 112 mtof;
#X obj 704 371 phasor~;
#X obj 716 131 square~;
#X obj 707 215 square~;
#X floatatom 707 188 5 0 0 0 - - -;
#X floatatom 744 231 5 0 0 0 - - -;
#X obj 707 247 *~;
#X obj 672 264 +~;
#X obj 705 297 phasor~;
#X floatatom 705 275 5 0 0 0 - - -;
#X floatatom 760 298 5 0 0 0 - - -;
#X floatatom 704 351 5 0 0 0 - - -;
#X floatatom 754 371 5 0 0 0 - - -;
#X obj 705 320 *~;
#X obj 704 397 *~;
#X obj 672 337 +~;
#X obj 672 414 +~;
#X obj 625 194 vu 15 120 empty empty -1 -8 0 10 -66577 -1 1 0;
#X obj 624 136 env~;
#X obj 624 163 - 100;
#X obj 434 110 r~ VU3;
#X obj 440 516 s~ VU3;
#X obj 624 467 s~ VU4;
#X obj 624 109 r~ VU4;
#X obj 28 417 r~ Delay;
#X obj 216 434 r~ Delay;
#X obj 416 432 r~ Delay;
#X obj 611 396 r~ Delay;
#X obj 95 87 hsl 128 15 0 127 0 0 empty empty empty -2 -8 0 10 -262144
-1 -1 100 1;
#X obj 386 945 freeverb~;
#X obj 441 833 hsl 36 23 0 127 0 0 empty empty empty -2 -8 0 10 -262130
-1 -1 2000 1;
#X obj 392 833 hsl 36 23 0 127 0 0 empty empty empty -2 -8 0 10 -204800
-1 -1 2300 1;
#X obj 488 834 hsl 36 23 0 127 0 0 empty empty empty -2 -8 0 10 -260912
-1 -1 0 1;
#X text 152 761 attack;
#X text 223 762 release;
#X obj 154 898 line~;
#X msg 224 856 0 500;
#X msg 153 856 1 2500;
#X msg 88 832 10 200;
#X obj 153 832 del 200;
#X obj 153 781 bng 15 250 50 0 empty empty empty 0 -6 0 8 -262144 -1
-1;
#X obj 224 782 bng 15 250 50 0 empty empty empty 0 -6 0 8 -262144 -1
-1;
#X msg 163 809 stop;
#X obj 130 723 metro 500;
#X obj 129 682 bng 15 250 50 0 empty empty empty 17 7 0 10 -262144
-1 -1;
#X obj 280 675 metro 600;
#X obj 283 647 bng 15 250 50 0 empty empty empty 17 7 0 10 -262144
-1 -1;
#X obj 44 948 writesf~ 2;
#X msg 239 898 open PDEpic.wav;
#X msg 33 869 start;
#X msg 38 908 stop;
#X msg 390 881 wet \$1;
#X msg 435 881 dry \$1;
#X msg 481 881 roomsize \$1;
#X msg 617 927 wet \$1;
#X msg 662 927 dry \$1;
#X msg 708 927 roomsize \$1;
#X obj 620 867 hsl 36 23 0 127 0 0 empty empty empty -2 -8 0 10 -204800
-1 -1 0 1;
#X obj 668 868 hsl 36 23 0 127 0 0 empty empty empty -2 -8 0 10 -262130
-1 -1 0 1;
#X obj 715 864 hsl 36 23 0 127 0 0 empty empty empty -2 -8 0 10 -260912
-1 -1 0 1;
#X obj 615 980 freeverb~;
#X text 127 644 envelope;
#X floatatom 938 149 5 0 0 0 - - -;
#X obj 938 183 +~;
#X obj 938 467 *~;
#X floatatom 975 112 5 0 0 0 - - -;
#X obj 975 166 *~;
#X floatatom 1003 152 5 0 0 0 - - -;
#X obj 1040 439 vsl 15 50 0 0.5 0 0 empty empty empty 0 -9 0 10 -262144
-1 -1 0 1;
#X obj 938 439 phasor~;
#X obj 890 86 hsl 128 15 0 127 0 0 empty empty empty -2 -8 0 10 -262144
-1 -1 0 1;
#X obj 938 113 mtof;
#X floatatom 973 189 5 0 0 0 - - -;
#X floatatom 1008 232 5 0 0 0 - - -;
#X obj 973 248 *~;
#X obj 938 265 +~;
#X floatatom 971 276 5 0 0 0 - - -;
#X floatatom 1006 305 5 0 0 0 - - -;
#X floatatom 970 352 5 0 0 0 - - -;
#X floatatom 1007 372 5 0 0 0 - - -;
#X obj 971 321 *~;
#X obj 970 398 *~;
#X obj 938 338 +~;
#X obj 938 415 +~;
#X obj 888 195 vu 15 120 empty empty -1 -8 0 10 -66577 -1 1 0;
#X obj 890 137 env~;
#X obj 890 164 - 100;
#X obj 973 216 osc~;
#X obj 971 298 osc~;
#X obj 970 372 osc~;
#X obj 890 110 r~ VU5;
#X obj 890 468 s~ VU5;
#X obj 975 132 osc~;
#X obj 1040 112 metro 100;
#X obj 1040 92 tgl 15 0 empty empty empty 17 7 0 10 -262144 -1 -1 1
1;
#X obj 1040 175 tgl 15 0 empty empty empty 17 7 0 10 -262144 -1 -1
1 1;
#X obj 1042 314 tgl 15 0 empty empty empty 17 7 0 10 -262144 -1 -1
1 1;
#X obj 1040 248 tgl 15 0 empty empty empty 17 7 0 10 -262144 -1 -1
1 1;
#X obj 1040 193 metro 150;
#X obj 1040 268 metro 200;
#X obj 1042 334 metro 50;
#X obj 793 208 random 20000;
#X obj 795 349 random 20000;
#X obj 793 128 random 20000;
#X obj 793 105 metro 100;
#X obj 793 85 tgl 15 0 empty empty empty 17 7 0 10 -262144 -1 -1 1
1;
#X obj 793 168 tgl 15 0 empty empty empty 17 7 0 10 -262144 -1 -1 1
1;
#X obj 795 307 tgl 15 0 empty empty empty 17 7 0 10 -262144 -1 -1 1
1;
#X obj 793 241 tgl 15 0 empty empty empty 17 7 0 10 -262144 -1 -1 1
1;
#X obj 793 186 metro 150;
#X obj 793 261 metro 200;
#X obj 795 327 metro 50;
#X obj 702 466 *~;
#X obj 969 468 *~;
#X obj 1042 356 drunk 20000;
#X obj 1040 289 drunk 20000;
#X obj 1040 215 drunk 20000;
#X obj 1040 135 drunk 20000;
#X msg 1062 171 1500;
#X msg 1103 173 300;
#X msg 1062 89 200;
#X msg 1098 89 12;
#X obj 793 282 drunk 20000;
#X msg 820 238 450;
#X connect 1 0 2 0;
#X connect 2 0 23 0;
#X connect 3 0 4 0;
#X connect 3 0 5 0;
#X connect 3 0 5 1;
#X connect 6 0 0 0;
#X connect 8 0 18 0;
#X connect 9 0 2 1;
#X connect 10 0 9 1;
#X connect 11 0 12 0;
#X connect 12 0 13 0;
#X connect 13 0 7 0;
#X connect 14 0 3 1;
#X connect 15 0 3 0;
#X connect 16 0 1 0;
#X connect 16 0 10 0;
#X connect 16 0 20 0;
#X connect 16 0 21 0;
#X connect 16 0 25 0;
#X connect 16 0 26 0;
#X connect 16 0 27 0;
#X connect 16 0 28 0;
#X connect 17 0 30 0;
#X connect 18 0 9 0;
#X connect 19 0 22 0;
#X connect 20 0 19 0;
#X connect 21 0 22 1;
#X connect 22 0 23 1;
#X connect 23 0 31 0;
#X connect 24 0 29 0;
#X connect 25 0 24 0;
#X connect 26 0 29 1;
#X connect 27 0 17 0;
#X connect 28 0 30 1;
#X connect 29 0 31 1;
#X connect 30 0 32 1;
#X connect 31 0 32 0;
#X connect 32 0 15 0;
#X connect 33 0 34 0;
#X connect 34 0 49 0;
#X connect 35 0 63 0;
#X connect 35 0 5 0;
#X connect 35 0 5 1;
#X connect 36 0 44 0;
#X connect 37 0 34 1;
#X connect 38 0 37 1;
#X connect 39 0 35 1;
#X connect 40 0 35 0;
#X connect 41 0 42 0;
#X connect 41 0 36 0;
#X connect 42 0 33 0;
#X connect 42 0 38 0;
#X connect 42 0 46 0;
#X connect 42 0 47 0;
#X connect 42 0 51 0;
#X connect 42 0 52 0;
#X connect 42 0 53 0;
#X connect 42 0 54 0;
#X connect 43 0 56 0;
#X connect 44 0 37 0;
#X connect 45 0 48 0;
#X connect 46 0 45 0;
#X connect 47 0 48 1;
#X connect 48 0 49 1;
#X connect 49 0 57 0;
#X connect 50 0 55 0;
#X connect 51 0 50 0;
#X connect 52 0 55 1;
#X connect 53 0 43 0;
#X connect 54 0 56 1;
#X connect 55 0 57 1;
#X connect 56 0 58 1;
#X connect 57 0 58 0;
#X connect 58 0 40 0;
#X connect 60 0 61 0;
#X connect 61 0 59 0;
#X connect 62 0 60 0;
#X connect 64 0 65 0;
#X connect 65 0 83 0;
#X connect 66 0 123 0;
#X connect 66 0 5 0;
#X connect 66 0 5 1;
#X connect 68 0 78 0;
#X connect 69 0 65 1;
#X connect 70 0 69 1;
#X connect 71 0 72 0;
#X connect 72 0 67 0;
#X connect 73 0 66 1;
#X connect 74 0 66 0;
#X connect 75 0 76 0;
#X connect 75 0 68 0;
#X connect 76 0 64 0;
#X connect 76 0 70 0;
#X connect 76 0 80 0;
#X connect 76 0 81 0;
#X connect 76 0 85 0;
#X connect 76 0 86 0;
#X connect 76 0 87 0;
#X connect 76 0 88 0;
#X connect 77 0 90 0;
#X connect 78 0 69 0;
#X connect 79 0 82 0;
#X connect 80 0 79 0;
#X connect 81 0 82 1;
#X connect 82 0 83 1;
#X connect 83 0 91 0;
#X connect 84 0 89 0;
#X connect 85 0 84 0;
#X connect 86 0 89 1;
#X connect 87 0 77 0;
#X connect 88 0 90 1;
#X connect 89 0 91 1;
#X connect 90 0 92 1;
#X connect 91 0 92 0;
#X connect 92 0 74 0;
#X connect 93 0 94 0;
#X connect 94 0 109 0;
#X connect 95 0 124 0;
#X connect 95 0 5 0;
#X connect 96 0 104 0;
#X connect 97 0 94 1;
#X connect 98 0 97 1;
#X connect 99 0 95 1;
#X connect 99 0 214 1;
#X connect 100 0 95 0;
#X connect 100 0 214 0;
#X connect 101 0 102 0;
#X connect 101 0 96 0;
#X connect 102 0 93 0;
#X connect 102 0 98 0;
#X connect 102 0 106 0;
#X connect 102 0 107 0;
#X connect 102 0 111 0;
#X connect 102 0 112 0;
#X connect 102 0 113 0;
#X connect 102 0 114 0;
#X connect 103 0 116 0;
#X connect 104 0 97 0;
#X connect 105 0 108 0;
#X connect 106 0 105 0;
#X connect 107 0 108 1;
#X connect 108 0 109 1;
#X connect 109 0 117 0;
#X connect 110 0 115 0;
#X connect 111 0 110 0;
#X connect 112 0 115 1;
#X connect 113 0 103 0;
#X connect 114 0 116 1;
#X connect 115 0 117 1;
#X connect 116 0 118 1;
#X connect 117 0 118 0;
#X connect 118 0 100 0;
#X connect 120 0 121 0;
#X connect 121 0 119 0;
#X connect 122 0 71 0;
#X connect 125 0 120 0;
#X connect 126 0 15 0;
#X connect 127 0 40 0;
#X connect 128 0 74 0;
#X connect 130 0 16 0;
#X connect 130 0 8 0;
#X connect 132 0 154 0;
#X connect 133 0 153 0;
#X connect 134 0 155 0;
#X connect 138 0 137 0;
#X connect 139 0 137 0;
#X connect 140 0 137 0;
#X connect 141 0 139 0;
#X connect 142 0 141 0;
#X connect 142 0 140 0;
#X connect 143 0 138 0;
#X connect 143 0 144 0;
#X connect 144 0 141 0;
#X connect 146 0 145 0;
#X connect 148 0 147 0;
#X connect 150 0 149 0;
#X connect 151 0 149 0;
#X connect 152 0 149 0;
#X connect 153 0 131 0;
#X connect 154 0 131 0;
#X connect 155 0 131 0;
#X connect 156 0 162 0;
#X connect 157 0 162 0;
#X connect 158 0 162 0;
#X connect 159 0 156 0;
#X connect 160 0 157 0;
#X connect 161 0 158 0;
#X connect 164 0 165 0;
#X connect 165 0 177 0;
#X connect 166 0 193 0;
#X connect 166 0 5 0;
#X connect 167 0 194 0;
#X connect 168 0 165 1;
#X connect 169 0 168 1;
#X connect 170 0 166 1;
#X connect 170 0 215 1;
#X connect 171 0 166 0;
#X connect 171 0 215 0;
#X connect 172 0 173 0;
#X connect 172 0 167 0;
#X connect 173 0 164 0;
#X connect 174 0 189 0;
#X connect 175 0 176 1;
#X connect 176 0 177 1;
#X connect 177 0 184 0;
#X connect 178 0 190 0;
#X connect 179 0 182 1;
#X connect 180 0 191 0;
#X connect 181 0 183 1;
#X connect 182 0 184 1;
#X connect 183 0 185 1;
#X connect 184 0 185 0;
#X connect 185 0 171 0;
#X connect 187 0 188 0;
#X connect 188 0 186 0;
#X connect 189 0 176 0;
#X connect 190 0 182 0;
#X connect 191 0 183 0;
#X connect 192 0 187 0;
#X connect 194 0 168 0;
#X connect 195 0 219 0;
#X connect 196 0 195 0;
#X connect 197 0 200 0;
#X connect 198 0 202 0;
#X connect 199 0 201 0;
#X connect 200 0 218 0;
#X connect 201 0 217 0;
#X connect 202 0 216 0;
#X connect 203 0 98 0;
#X connect 203 0 112 0;
#X connect 204 0 113 0;
#X connect 205 0 114 0;
#X connect 205 0 106 0;
#X connect 206 0 205 0;
#X connect 207 0 206 0;
#X connect 208 0 211 0;
#X connect 209 0 213 0;
#X connect 210 0 212 0;
#X connect 211 0 203 0;
#X connect 212 0 224 0;
#X connect 213 0 204 0;
#X connect 214 0 5 1;
#X connect 215 0 5 1;
#X connect 216 0 181 0;
#X connect 216 0 178 0;
#X connect 217 0 179 0;
#X connect 217 0 180 0;
#X connect 218 0 175 0;
#X connect 218 0 167 0;
#X connect 219 0 169 0;
#X connect 219 0 174 0;
#X connect 219 0 93 0;
#X connect 220 0 218 1;
#X connect 221 0 218 2;
#X connect 222 0 219 1;
#X connect 223 0 195 1;
#X connect 224 0 93 0;
#X connect 224 0 111 0;
#X connect 225 0 224 2;
