#N canvas 151 57 1022 657 10;
#N canvas 56 28 1132 637 reverb 1;
#X obj 14 108 s~ dac1;
#X obj 18 228 s~ dac2;
#X obj 19 347 s~ dac3;
#X obj 21 474 s~ dac4;
#X obj 93 477 freeverb~;
#X obj 89 108 freeverb~;
#X obj 91 353 freeverb~;
#X obj 89 232 freeverb~;
#X msg 162 293 roomsize \$1;
#X msg 163 323 damping \$1;
#X msg 163 353 wet \$1;
#X msg 163 385 dry \$1;
#X msg 160 172 roomsize \$1;
#X msg 161 202 damping \$1;
#X msg 161 232 wet \$1;
#X msg 161 264 dry \$1;
#X msg 164 417 roomsize \$1;
#X msg 165 447 damping \$1;
#X msg 165 477 wet \$1;
#X msg 165 509 dry \$1;
#X msg 159 49 roomsize \$1;
#X msg 160 79 damping \$1;
#X msg 160 109 wet \$1;
#X msg 160 141 dry \$1;
#X obj 293 34 hsl 128 15 0 1 0 0 empty empty empty -2 -8 0 10 -262144
-1 -1 0 1;
#X obj 293 64 hsl 128 15 0 1 0 0 empty empty empty -2 -8 0 10 -262144
-1 -1 0 1;
#X obj 293 94 hsl 128 15 0 1 0 0 empty empty empty -2 -8 0 10 -262144
-1 -1 0 1;
#X obj 292 157 hsl 128 15 0 1 0 0 empty empty empty -2 -8 0 10 -262144
-1 -1 0 1;
#X obj 292 187 hsl 128 15 0 1 0 0 empty empty empty -2 -8 0 10 -262144
-1 -1 0 1;
#X obj 292 217 hsl 128 15 0 1 0 0 empty empty empty -2 -8 0 10 -262144
-1 -1 0 1;
#X obj 292 278 hsl 128 15 0 1 0 0 empty empty empty -2 -8 0 10 -262144
-1 -1 0 1;
#X obj 292 308 hsl 128 15 0 1 0 0 empty empty empty -2 -8 0 10 -262144
-1 -1 0 1;
#X obj 292 338 hsl 128 15 0 1 0 0 empty empty empty -2 -8 0 10 -262144
-1 -1 0 1;
#X obj 291 402 hsl 128 15 0 1 0 0 empty empty empty -2 -8 0 10 -262144
-1 -1 0 1;
#X obj 291 432 hsl 128 15 0 1 0 0 empty empty empty -2 -8 0 10 -262144
-1 -1 0 1;
#X obj 291 462 hsl 128 15 0 1 0 0 empty empty empty -2 -8 0 10 -262144
-1 -1 7500 1;
#X floatatom 439 49 5 0 0 0 - - -;
#X floatatom 438 79 5 0 0 0 - - -;
#X floatatom 438 109 5 0 0 0 - - -;
#X floatatom 439 172 5 0 0 0 - - -;
#X floatatom 438 202 5 0 0 0 - - -;
#X floatatom 438 232 5 0 0 0 - - -;
#X floatatom 439 293 5 0 0 0 - - -;
#X floatatom 438 323 5 0 0 0 - - -;
#X floatatom 438 353 5 0 0 0 - - -;
#X floatatom 439 417 5 0 0 0 - - -;
#X floatatom 438 447 5 0 0 0 - - -;
#X floatatom 438 477 5 0 0 0 - - -;
#X obj 240 124 expr 1-$f1;
#X obj 242 247 expr 1-$f1;
#X obj 247 368 expr 1-$f1;
#X obj 248 492 expr 1-$f1;
#X msg 89 37 freeze \$1;
#X obj 89 19 tgl 15 0 empty empty empty 17 7 0 10 -262144 -1 -1 0 1
;
#X obj 90 62 tgl 15 0 empty empty empty 17 7 0 10 -262144 -1 -1 0 1
;
#X msg 90 80 bypass \$1;
#X msg 91 155 freeze \$1;
#X obj 91 137 tgl 15 0 empty empty empty 17 7 0 10 -262144 -1 -1 0
1;
#X obj 92 180 tgl 15 0 empty empty empty 17 7 0 10 -262144 -1 -1 0
1;
#X msg 92 198 bypass \$1;
#X msg 91 275 freeze \$1;
#X obj 91 257 tgl 15 0 empty empty empty 17 7 0 10 -262144 -1 -1 0
1;
#X obj 92 300 tgl 15 0 empty empty empty 17 7 0 10 -262144 -1 -1 1
1;
#X msg 92 318 bypass \$1;
#X msg 93 400 freeze \$1;
#X obj 93 382 tgl 15 0 empty empty empty 17 7 0 10 -262144 -1 -1 0
1;
#X obj 94 425 tgl 15 0 empty empty empty 17 7 0 10 -262144 -1 -1 1
1;
#X msg 94 443 bypass \$1;
#X obj 482 47 metro 100;
#X obj 482 27 tgl 15 0 empty empty empty 17 7 0 10 -262144 -1 -1 0
1;
#X obj 487 170 metro 100;
#X obj 487 150 tgl 15 0 empty empty empty 17 7 0 10 -262144 -1 -1 0
1;
#X obj 487 215 * 0.005;
#X obj 487 193 drunk 0.2696;
#X obj 487 291 metro 100;
#X obj 487 271 tgl 15 0 empty empty empty 17 7 0 10 -262144 -1 -1 0
1;
#X obj 487 336 * 0.005;
#X obj 488 416 metro 100;
#X obj 488 396 tgl 15 0 empty empty empty 17 7 0 10 -262144 -1 -1 0
1;
#X obj 488 460 * 0.005;
#X obj 487 314 drunk 0.909986;
#X obj 488 439 drunk 0.6696;
#X obj 32 423 r~ fv4;
#X obj 26 304 r~ fv3;
#X obj 23 169 r~ fv2;
#X obj 22 57 r~ fv1;
#X obj 482 92 * 0.0095;
#X obj 482 70 drunk 0.9696;
#X floatatom 575 -25 5 0 0 0 - - -;
#X obj 575 -4 *;
#X floatatom 575 18 5 0 0 0 - - -;
#X obj 575 -71 t b f;
#X obj 575 -89 bng 15 250 50 0 empty empty empty 17 7 0 10 -262144
-1 -1;
#X msg 612 -29 0.00787402;
#X obj 597 -50 ctlin 34;
#X floatatom 689 5 5 0 0 0 - - -;
#X obj 689 26 *;
#X floatatom 689 48 5 0 0 0 - - -;
#X obj 689 -41 t b f;
#X obj 689 -59 bng 15 250 50 0 empty empty empty 17 7 0 10 -262144
-1 -1;
#X msg 726 1 0.00787402;
#X obj 711 -20 ctlin 35;
#X floatatom 802 35 5 0 0 0 - - -;
#X obj 802 56 *;
#X floatatom 802 78 5 0 0 0 - - -;
#X obj 802 -11 t b f;
#X obj 802 -29 bng 15 250 50 0 empty empty empty 17 7 0 10 -262144
-1 -1;
#X msg 839 31 0.00787402;
#X obj 824 10 ctlin 36;
#X floatatom 574 100 5 0 0 0 - - -;
#X obj 574 121 *;
#X floatatom 574 143 5 0 0 0 - - -;
#X obj 574 54 t b f;
#X obj 574 36 bng 15 250 50 0 empty empty empty 17 7 0 10 -262144 -1
-1;
#X msg 611 96 0.00787402;
#X floatatom 688 131 5 0 0 0 - - -;
#X obj 688 152 *;
#X floatatom 688 174 5 0 0 0 - - -;
#X obj 688 85 t b f;
#X obj 688 67 bng 15 250 50 0 empty empty empty 17 7 0 10 -262144 -1
-1;
#X msg 725 127 0.00787402;
#X floatatom 801 162 5 0 0 0 - - -;
#X obj 801 183 *;
#X floatatom 801 205 5 0 0 0 - - -;
#X obj 801 116 t b f;
#X obj 801 98 bng 15 250 50 0 empty empty empty 17 7 0 10 -262144 -1
-1;
#X msg 838 158 0.00787402;
#X obj 596 75 ctlin 37;
#X obj 710 106 ctlin 38;
#X obj 823 137 ctlin 39;
#X floatatom 574 227 5 0 0 0 - - -;
#X obj 574 248 *;
#X floatatom 574 270 5 0 0 0 - - -;
#X obj 574 181 t b f;
#X obj 574 163 bng 15 250 50 0 empty empty empty 17 7 0 10 -262144
-1 -1;
#X msg 611 223 0.00787402;
#X floatatom 688 257 5 0 0 0 - - -;
#X obj 688 278 *;
#X floatatom 688 300 5 0 0 0 - - -;
#X obj 688 211 t b f;
#X obj 688 193 bng 15 250 50 0 empty empty empty 17 7 0 10 -262144
-1 -1;
#X msg 725 253 0.00787402;
#X floatatom 801 287 5 0 0 0 - - -;
#X obj 801 308 *;
#X floatatom 801 330 5 0 0 0 - - -;
#X obj 801 241 t b f;
#X obj 801 223 bng 15 250 50 0 empty empty empty 17 7 0 10 -262144
-1 -1;
#X msg 838 283 0.00787402;
#X obj 596 202 ctlin 40;
#X obj 710 232 ctlin 41;
#X obj 823 262 ctlin 42;
#X floatatom 574 353 5 0 0 0 - - -;
#X obj 574 374 *;
#X floatatom 574 396 5 0 0 0 - - -;
#X obj 574 307 t b f;
#X obj 574 289 bng 15 250 50 0 empty empty empty 17 7 0 10 -262144
-1 -1;
#X msg 611 349 0.00787402;
#X floatatom 688 383 5 0 0 0 - - -;
#X obj 688 404 *;
#X floatatom 688 426 5 0 0 0 - - -;
#X obj 688 337 t b f;
#X obj 688 319 bng 15 250 50 0 empty empty empty 17 7 0 10 -262144
-1 -1;
#X msg 725 379 0.00787402;
#X floatatom 801 413 5 0 0 0 - - -;
#X obj 801 434 *;
#X floatatom 801 456 5 0 0 0 - - -;
#X obj 801 367 t b f;
#X obj 801 349 bng 15 250 50 0 empty empty empty 17 7 0 10 -262144
-1 -1;
#X msg 838 409 0.00787402;
#X obj 596 328 ctlin 43;
#X obj 710 358 ctlin 44;
#X obj 823 388 ctlin 45;
#X connect 4 0 3 0;
#X connect 5 0 0 0;
#X connect 6 0 2 0;
#X connect 7 0 1 0;
#X connect 8 0 6 0;
#X connect 9 0 6 0;
#X connect 10 0 6 0;
#X connect 12 0 7 0;
#X connect 13 0 7 0;
#X connect 14 0 7 0;
#X connect 16 0 4 0;
#X connect 17 0 4 0;
#X connect 18 0 4 0;
#X connect 20 0 5 0;
#X connect 21 0 5 0;
#X connect 22 0 5 0;
#X connect 24 0 20 0;
#X connect 24 0 36 0;
#X connect 25 0 21 0;
#X connect 25 0 37 0;
#X connect 26 0 22 0;
#X connect 26 0 38 0;
#X connect 26 0 48 0;
#X connect 27 0 12 0;
#X connect 27 0 39 0;
#X connect 28 0 13 0;
#X connect 28 0 40 0;
#X connect 29 0 14 0;
#X connect 29 0 41 0;
#X connect 29 0 49 0;
#X connect 30 0 8 0;
#X connect 30 0 42 0;
#X connect 31 0 9 0;
#X connect 31 0 43 0;
#X connect 32 0 10 0;
#X connect 32 0 44 0;
#X connect 32 0 50 0;
#X connect 33 0 16 0;
#X connect 33 0 45 0;
#X connect 34 0 17 0;
#X connect 34 0 46 0;
#X connect 35 0 18 0;
#X connect 35 0 47 0;
#X connect 35 0 51 0;
#X connect 48 0 23 0;
#X connect 49 0 15 0;
#X connect 50 0 11 0;
#X connect 51 0 19 0;
#X connect 52 0 5 0;
#X connect 53 0 52 0;
#X connect 54 0 55 0;
#X connect 55 0 5 0;
#X connect 56 0 7 0;
#X connect 57 0 56 0;
#X connect 58 0 59 0;
#X connect 59 0 7 0;
#X connect 60 0 6 0;
#X connect 61 0 60 0;
#X connect 62 0 63 0;
#X connect 63 0 6 0;
#X connect 64 0 4 0;
#X connect 65 0 64 0;
#X connect 66 0 67 0;
#X connect 67 0 4 0;
#X connect 68 0 87 0;
#X connect 69 0 68 0;
#X connect 70 0 73 0;
#X connect 71 0 70 0;
#X connect 72 0 39 0;
#X connect 72 0 41 0;
#X connect 72 0 37 0;
#X connect 73 0 72 0;
#X connect 74 0 80 0;
#X connect 75 0 74 0;
#X connect 76 0 44 0;
#X connect 76 0 42 0;
#X connect 76 0 46 0;
#X connect 77 0 81 0;
#X connect 78 0 77 0;
#X connect 79 0 47 0;
#X connect 79 0 45 0;
#X connect 79 0 43 0;
#X connect 80 0 76 0;
#X connect 81 0 79 0;
#X connect 82 0 4 0;
#X connect 83 0 6 0;
#X connect 84 0 7 0;
#X connect 85 0 5 0;
#X connect 86 0 36 0;
#X connect 86 0 38 0;
#X connect 86 0 40 0;
#X connect 87 0 86 0;
#X connect 88 0 89 0;
#X connect 89 0 90 0;
#X connect 90 0 24 0;
#X connect 91 0 88 0;
#X connect 91 0 93 0;
#X connect 92 0 91 0;
#X connect 93 0 89 1;
#X connect 94 0 88 0;
#X connect 95 0 96 0;
#X connect 96 0 97 0;
#X connect 97 0 25 0;
#X connect 98 0 95 0;
#X connect 98 0 100 0;
#X connect 99 0 98 0;
#X connect 100 0 96 1;
#X connect 101 0 95 0;
#X connect 102 0 103 0;
#X connect 103 0 104 0;
#X connect 104 0 26 0;
#X connect 105 0 102 0;
#X connect 105 0 107 0;
#X connect 106 0 105 0;
#X connect 107 0 103 1;
#X connect 108 0 102 0;
#X connect 109 0 110 0;
#X connect 110 0 111 0;
#X connect 111 0 27 0;
#X connect 112 0 109 0;
#X connect 112 0 114 0;
#X connect 113 0 112 0;
#X connect 114 0 110 1;
#X connect 115 0 116 0;
#X connect 116 0 117 0;
#X connect 117 0 28 0;
#X connect 118 0 115 0;
#X connect 118 0 120 0;
#X connect 119 0 118 0;
#X connect 120 0 116 1;
#X connect 121 0 122 0;
#X connect 122 0 123 0;
#X connect 123 0 29 0;
#X connect 124 0 121 0;
#X connect 124 0 126 0;
#X connect 125 0 124 0;
#X connect 126 0 122 1;
#X connect 127 0 109 0;
#X connect 128 0 115 0;
#X connect 129 0 121 0;
#X connect 130 0 131 0;
#X connect 131 0 132 0;
#X connect 132 0 30 0;
#X connect 133 0 130 0;
#X connect 133 0 135 0;
#X connect 134 0 133 0;
#X connect 135 0 131 1;
#X connect 136 0 137 0;
#X connect 137 0 138 0;
#X connect 138 0 31 0;
#X connect 139 0 136 0;
#X connect 139 0 141 0;
#X connect 140 0 139 0;
#X connect 141 0 137 1;
#X connect 142 0 143 0;
#X connect 143 0 144 0;
#X connect 144 0 32 0;
#X connect 145 0 142 0;
#X connect 145 0 147 0;
#X connect 146 0 145 0;
#X connect 147 0 143 1;
#X connect 148 0 130 0;
#X connect 149 0 136 0;
#X connect 150 0 142 0;
#X connect 151 0 152 0;
#X connect 152 0 153 0;
#X connect 153 0 33 0;
#X connect 154 0 151 0;
#X connect 154 0 156 0;
#X connect 155 0 154 0;
#X connect 156 0 152 1;
#X connect 157 0 158 0;
#X connect 158 0 159 0;
#X connect 159 0 34 0;
#X connect 160 0 157 0;
#X connect 160 0 162 0;
#X connect 161 0 160 0;
#X connect 162 0 158 1;
#X connect 163 0 164 0;
#X connect 164 0 165 0;
#X connect 165 0 35 0;
#X connect 166 0 163 0;
#X connect 166 0 168 0;
#X connect 167 0 166 0;
#X connect 168 0 164 1;
#X connect 169 0 151 0;
#X connect 170 0 157 0;
#X connect 171 0 163 0;
#X restore 134 -27 pd reverb;
#X msg 99 54 \; pd dsp \$1;
#X obj 99 26 tgl 15 0 empty empty empty 17 7 0 10 -262144 -1 -1 0 1
;
#X obj 28 413 dac~ 1 2;
#X obj 307 434 vu 15 120 empty empty -1 -8 0 10 -66577 -1 1 0;
#X obj 357 434 vu 15 120 empty empty -1 -8 0 10 -66577 -1 1 0;
#X obj 411 434 vu 15 120 empty empty -1 -8 0 10 -66577 -1 1 0;
#X obj 257 434 vu 15 120 empty empty -1 -8 0 10 -66577 -1 1 0;
#X obj 266 376 env~;
#X obj 306 376 env~;
#X obj 346 376 env~;
#X obj 386 376 env~;
#X obj 266 355 *~;
#X obj 306 355 *~;
#X obj 346 355 *~;
#X obj 386 355 *~;
#X floatatom 266 61 5 0 0 0 - - -;
#X floatatom 386 61 5 0 0 0 - - -;
#X floatatom 306 61 5 0 0 0 - - -;
#X floatatom 346 61 5 0 0 0 - - -;
#X obj 28 456 dac~ 1 2;
#X obj 28 500 dac~ 1 2;
#X obj 28 541 dac~ 1 2;
#X obj 28 392 r~ dac1;
#X obj 28 434 r~ dac2;
#X obj 28 477 r~ dac3;
#X obj 28 520 r~ dac4;
#X obj 281 144 vsl 15 50 0 0.5 0 0 empty empty empty 0 -9 0 10 -262144
-1 -1 0 1;
#X obj 321 144 vsl 15 50 0 0.5 0 0 empty empty empty 0 -9 0 10 -262144
-1 -1 0 1;
#X obj 361 144 vsl 15 50 0 0.5 0 0 empty empty empty 0 -9 0 10 -262144
-1 -1 0 1;
#X obj 401 144 vsl 15 50 0 0.5 0 0 empty empty empty 0 -9 0 10 -262144
-1 -1 0 1;
#X obj 266 406 - 100;
#X obj 306 406 - 100;
#X obj 346 406 - 100;
#X obj 386 406 - 100;
#X msg 274 37 0;
#X msg 315 37 0;
#X msg 352 37 0;
#X msg 394 37 0;
#X obj 20 106 tgl 15 0 empty empty empty 17 7 0 10 -262144 -1 -1 0
17;
#X obj 20 189 tgl 15 0 empty empty empty 17 7 0 10 -262144 -1 -1 0
23;
#X msg 42 185 1500;
#X msg 83 187 300;
#X msg 78 103 12;
#X obj 136 129 metro 100;
#X obj 136 109 tgl 15 0 empty empty empty 17 7 0 10 -262144 -1 -1 0
22;
#X obj 136 192 tgl 15 0 empty empty empty 17 7 0 10 -262144 -1 -1 0
24;
#X obj 136 210 metro 150;
#X msg 158 188 1500;
#X msg 199 190 300;
#X msg 211 109 12;
#X msg 42 103 5000;
#X msg 158 106 700;
#X obj 20 229 drunk 2000;
#X obj 20 207 metro 15;
#X obj 20 126 metro 1;
#X obj 136 152 drunk 450;
#X obj 136 232 drunk 1500;
#X obj 158 386 +~;
#X obj 158 358 *~;
#X floatatom 158 299 5 0 0 0 - - -;
#X floatatom 189 342 5 0 0 0 - - -;
#X obj 158 321 osc~;
#X obj 20 149 drunk 2000;
#X floatatom 95 128 5 0 0 0 - - -;
#X floatatom 97 156 5 0 0 0 - - -;
#X text 11 83 If you click the 5000 really fast it's cool;
#X obj 817 -108 metro 125;
#X obj 817 -85 counter;
#X floatatom 817 10 5 0 0 0 - - -;
#N canvas 753 54 500 451 bpm 0;
#X obj 10 11 inlet;
#X obj 110 11 inlet;
#X text 47 9 BPM;
#X text 148 9 Note value;
#X msg 25 138 60000;
#X obj 25 162 /;
#X obj 25 186 int;
#X floatatom 25 210 5 0 0 0 - - -;
#X obj 45 250 *;
#X obj 82 71 t b f;
#X obj 85 108 sel 0 1 2 3;
#X msg 85 142 0.25;
#X msg 91 162 0.5;
#X msg 96 185 1;
#X msg 102 207 1.5;
#X obj 25 94 int;
#X floatatom 45 278 5 0 0 0 - - -;
#X obj 25 116 t b f;
#X obj 10 72 bng 15 250 50 0 empty empty empty 17 7 0 10 -262144 -1
-1;
#X text 123 143 16th;
#X text 128 163 8th;
#X text 130 184 Quarter;
#X text 134 207 Dotted Quarter;
#X text 85 279 Result in msec.;
#X obj 45 306 outlet;
#X connect 0 0 15 1;
#X connect 0 0 18 0;
#X connect 1 0 9 0;
#X connect 4 0 5 0;
#X connect 5 0 6 0;
#X connect 6 0 7 0;
#X connect 7 0 8 0;
#X connect 8 0 16 0;
#X connect 9 0 15 0;
#X connect 9 1 10 0;
#X connect 10 0 11 0;
#X connect 10 1 12 0;
#X connect 10 2 13 0;
#X connect 10 3 14 0;
#X connect 11 0 8 1;
#X connect 12 0 8 1;
#X connect 13 0 8 1;
#X connect 14 0 8 1;
#X connect 15 0 17 0;
#X connect 16 0 24 0;
#X connect 17 0 4 0;
#X connect 17 1 5 1;
#X connect 18 0 15 0;
#X restore 868 -135 pd bpm;
#X floatatom 886 -104 5 0 0 0 - - -;
#X obj 849 -177 nbx 3 24 -1e+37 1e+37 0 0 empty empty empty 0 -8 0
12 -117248 -1 -1 261 256;
#X obj 901 -207 vradio 15 1 0 4 empty empty empty 0 -8 0 10 -179008
-1 -1 3;
#X text 923 -208 16th;
#X text 924 -193 8th;
#X text 924 -178 Quarter;
#X text 924 -161 DottedQ;
#X text 767 -172 BPM (Quarter);
#X text 922 -103 msec.;
#X obj 108 -105 tgl 30 0 startstop empty empty 17 7 0 10 -262144 -1
-1 20 20;
#X obj 788 -131 r startstop;
#X obj 885 -79 r cyclenotes;
#X floatatom 885 -54 5 0 0 0 - - -;
#X obj 228 -39 s cyclenotes;
#X obj 228 -102 hradio 30 1 0 19 empty empty empty 0 -8 0 10 -262144
-1 -1 10;
#X text 225 -124 Cycle length;
#X obj 457 -42 hsl 80 24 66 700 0 0 empty empty empty -2 -8 0 24 -262144
-1 -1 6620 0;
#X obj 454 -12 int;
#X floatatom 454 11 5 0 0 0 - - -;
#X obj 454 34 s offset;
#X obj 885 -29 r offset;
#X text 452 -62 Offset;
#X text 141 -98 Start / Stop;
#X obj 1088 42 ctlout 71 1;
#X obj 1088 -50 vsl 20 68 0 127 0 0 empty empty empty 0 -9 0 10 -262144
-1 -1 0 1;
#X obj 1008 43 ctlout 74 1;
#X obj 1008 -52 vsl 20 68 0 127 0 0 empty empty empty 0 -9 0 10 -262144
-1 -1 0 1;
#X text 965 -79 Frequency Cutoff;
#X text 1084 -79 Q;
#X obj 228 -64 + 1;
#X obj 817 -62 % 8;
#X obj 817 36 * 0.5;
#X obj 860 36 * 0.75;
#X obj 910 36 * 0.25;
#X obj 346 289 osc~;
#X obj 386 289 osc~;
#X obj 817 -12 + 800;
#X obj 444 372 s~ fv4;
#X obj 444 349 s~ fv3;
#X obj 444 326 s~ fv2;
#X obj 444 304 s~ fv1;
#X msg 632 143 0.00393701;
#X floatatom 595 147 5 0 0 0 - - -;
#X obj 595 168 *;
#X floatatom 595 190 5 0 0 0 - - -;
#X obj 595 123 bng 15 250 50 0 empty empty empty 17 7 0 10 -262144
-1 -1;
#X obj 617 122 ctlin 29;
#X msg 632 230 0.00393701;
#X floatatom 595 234 5 0 0 0 - - -;
#X obj 595 255 *;
#X floatatom 595 277 5 0 0 0 - - -;
#X obj 595 210 bng 15 250 50 0 empty empty empty 17 7 0 10 -262144
-1 -1;
#X obj 617 209 ctlin 28;
#X msg 744 141 0.00393701;
#X floatatom 707 145 5 0 0 0 - - -;
#X obj 707 166 *;
#X floatatom 707 188 5 0 0 0 - - -;
#X obj 707 121 bng 15 250 50 0 empty empty empty 17 7 0 10 -262144
-1 -1;
#X obj 729 120 ctlin 27;
#X floatatom 554 -22 5 0 0 0 - - -;
#X obj 554 -46 bng 15 250 50 0 empty empty empty 17 7 0 10 -262144
-1 -1;
#X obj 576 -47 ctlin 25;
#X floatatom 554 35 5 0 0 0 - - -;
#X obj 554 3 *;
#X msg 625 0 5.53;
#X obj 333 -191 notein;
#X floatatom 397 -178 5 0 0 0 - - -;
#X msg 333 -153 \$1;
#X msg 774 331 0.00393701;
#X floatatom 737 335 5 0 0 0 - - -;
#X obj 737 356 *;
#X floatatom 737 378 5 0 0 0 - - -;
#X obj 737 311 bng 15 250 50 0 empty empty empty 17 7 0 10 -262144
-1 -1;
#X floatatom 816 456 5 0 0 0 - - -;
#X obj 816 477 *;
#X floatatom 816 499 5 0 0 0 - - -;
#X obj 816 432 bng 15 250 50 0 empty empty empty 17 7 0 10 -262144
-1 -1;
#X msg 853 452 0.0.0078740157;
#X obj 759 310 ctlin 47;
#X obj 552 316 notein;
#X msg 557 358 21;
#X obj 521 378 notein;
#X msg 526 420 22;
#X obj 622 354 notein;
#X obj 587 427 notein;
#X msg 627 396 23;
#X msg 592 469 24;
#X obj 86 -199 notein;
#X obj 936 145 notein;
#X msg 941 187 22;
#X msg 91 -157 20;
#X obj 306 289 phasor~;
#X obj 266 289 phasor~;
#X connect 2 0 1 0;
#X connect 8 0 31 0;
#X connect 9 0 32 0;
#X connect 10 0 33 0;
#X connect 11 0 34 0;
#X connect 12 0 8 0;
#X connect 12 0 111 0;
#X connect 13 0 9 0;
#X connect 13 0 110 0;
#X connect 14 0 10 0;
#X connect 14 0 109 0;
#X connect 15 0 11 0;
#X connect 15 0 108 0;
#X connect 16 0 163 0;
#X connect 17 0 106 0;
#X connect 18 0 162 0;
#X connect 19 0 105 0;
#X connect 23 0 3 0;
#X connect 23 0 3 1;
#X connect 24 0 20 0;
#X connect 24 0 20 1;
#X connect 25 0 21 0;
#X connect 25 0 21 1;
#X connect 26 0 22 0;
#X connect 26 0 22 1;
#X connect 27 0 12 1;
#X connect 28 0 13 1;
#X connect 29 0 14 1;
#X connect 30 0 15 1;
#X connect 31 0 7 0;
#X connect 32 0 4 0;
#X connect 33 0 5 0;
#X connect 34 0 6 0;
#X connect 35 0 163 0;
#X connect 36 0 162 0;
#X connect 37 0 105 0;
#X connect 38 0 106 0;
#X connect 39 0 55 0;
#X connect 40 0 54 0;
#X connect 41 0 53 1;
#X connect 42 0 53 2;
#X connect 43 0 55 1;
#X connect 44 0 56 0;
#X connect 45 0 44 0;
#X connect 46 0 47 0;
#X connect 47 0 57 0;
#X connect 48 0 57 1;
#X connect 49 0 57 2;
#X connect 50 0 44 1;
#X connect 51 0 63 1;
#X connect 52 0 56 1;
#X connect 53 0 19 0;
#X connect 54 0 53 0;
#X connect 55 0 63 0;
#X connect 56 0 18 0;
#X connect 57 0 17 0;
#X connect 57 0 65 0;
#X connect 57 0 64 0;
#X connect 59 0 58 0;
#X connect 60 0 62 0;
#X connect 61 0 59 1;
#X connect 62 0 59 0;
#X connect 63 0 16 0;
#X connect 64 0 63 2;
#X connect 65 0 63 1;
#X connect 67 0 68 0;
#X connect 68 0 101 0;
#X connect 69 0 16 0;
#X connect 69 0 102 0;
#X connect 69 0 103 0;
#X connect 69 0 104 0;
#X connect 70 0 67 1;
#X connect 70 0 71 0;
#X connect 72 0 70 0;
#X connect 73 0 70 1;
#X connect 81 0 67 0;
#X connect 82 0 83 0;
#X connect 82 0 101 1;
#X connect 85 0 100 0;
#X connect 87 0 88 0;
#X connect 88 0 89 0;
#X connect 89 0 90 0;
#X connect 91 0 107 1;
#X connect 95 0 94 0;
#X connect 97 0 96 0;
#X connect 100 0 84 0;
#X connect 101 0 107 0;
#X connect 102 0 18 0;
#X connect 103 0 19 0;
#X connect 104 0 17 0;
#X connect 105 0 14 0;
#X connect 106 0 15 0;
#X connect 107 0 69 0;
#X connect 112 0 114 1;
#X connect 113 0 114 0;
#X connect 114 0 115 0;
#X connect 115 0 30 0;
#X connect 116 0 113 0;
#X connect 116 0 112 0;
#X connect 117 0 113 0;
#X connect 118 0 120 1;
#X connect 119 0 120 0;
#X connect 120 0 121 0;
#X connect 121 0 29 0;
#X connect 122 0 119 0;
#X connect 122 0 118 0;
#X connect 123 0 119 0;
#X connect 124 0 126 1;
#X connect 125 0 126 0;
#X connect 126 0 127 0;
#X connect 127 0 28 0;
#X connect 128 0 125 0;
#X connect 128 0 124 0;
#X connect 129 0 125 0;
#X connect 130 0 134 0;
#X connect 131 0 130 0;
#X connect 131 0 135 0;
#X connect 132 0 130 0;
#X connect 133 0 87 0;
#X connect 134 0 133 0;
#X connect 135 0 134 1;
#X connect 136 0 138 0;
#X connect 136 2 137 0;
#X connect 138 0 85 0;
#X connect 139 0 141 1;
#X connect 140 0 141 0;
#X connect 141 0 142 0;
#X connect 142 0 27 0;
#X connect 143 0 140 0;
#X connect 143 0 139 0;
#X connect 144 0 145 0;
#X connect 145 0 146 0;
#X connect 147 0 144 0;
#X connect 147 0 148 0;
#X connect 148 0 145 1;
#X connect 149 0 140 0;
#X connect 150 0 39 0;
#X connect 150 1 151 0;
#X connect 152 1 153 0;
#X connect 153 0 45 0;
#X connect 154 1 156 0;
#X connect 155 1 157 0;
#X connect 156 0 40 0;
#X connect 157 0 46 0;
#X connect 158 1 161 0;
#X connect 159 1 160 0;
#X connect 161 0 80 0;
#X connect 162 0 13 0;
#X connect 163 0 12 0;
